<?xml version="1.0" encoding="UTF-8"?>
<svg id="_레이어_1" data-name="레이어_1" xmlns="http://www.w3.org/2000/svg" version="1.1" viewBox="0 0 450.33 138.85">
  <!-- Generator: Adobe Illustrator 30.3.0, SVG Export Plug-In . SVG Version: 2.1.3 Build 182)  -->
  <defs>
    <style>
      .st0 {
        fill: #1c1c1c;
      }
    </style>
  </defs>
  <path class="st0" d="M31.4,53.49l6.34,4.7-16.61,20.74,19.2,22.94-6.34,4.99-22.37-27.55,19.78-25.83ZM8.07,105.52H0V33.71l8.07-1.83v73.64Z"/>
  <path class="st0" d="M74.69,94v-12.1h-9.03c-9.12,0-13.25,3.07-13.25,9.6,0,5.28,2.88,8.26,8.07,8.26,4.7,0,10.84-2.49,14.21-5.76M64.61,76.24h10.08v-4.13c0-7.97-3.55-11.14-10.28-11.14-4.7,0-9.98,1.44-14.11,3.36l-2.4-5.67c5.09-2.88,11.23-4.61,16.7-4.61,12.01,0,17.86,5.77,17.86,18.44v33.03h-5.95l-.96-5.57c-4.99,4.03-11.43,6.33-16.52,6.33-8.93,0-14.3-5.37-14.3-14.4,0-10.27,6.91-15.65,19.87-15.65"/>
  <path class="st0" d="M128.26,53.49l6.33,4.7-16.61,20.74,19.2,22.94-6.33,4.99-22.37-27.55,19.78-25.83ZM104.93,105.52h-8.06V33.71l8.06-1.83v73.64Z"/>
  <path class="st0" d="M171.55,94v-12.1h-9.02c-9.12,0-13.25,3.07-13.25,9.6,0,5.28,2.88,8.26,8.06,8.26,4.7,0,10.85-2.49,14.21-5.76M161.47,76.24h10.08v-4.13c0-7.97-3.55-11.14-10.27-11.14-4.7,0-9.98,1.44-14.11,3.36l-2.41-5.67c5.09-2.88,11.23-4.61,16.71-4.61,12,0,17.86,5.77,17.86,18.44v33.03h-5.95l-.96-5.57c-4.99,4.03-11.42,6.33-16.51,6.33-8.93,0-14.31-5.37-14.31-14.4,0-10.27,6.92-15.65,19.87-15.65"/>
  <path class="st0" d="M199.18,80.37c0,12.77,5.18,19.49,14.11,19.49s14.11-6.72,14.11-19.49-5.19-19.68-14.11-19.68-14.11,6.92-14.11,19.68M235.76,80.37c0,16.8-8.35,26.11-22.47,26.11s-22.46-9.31-22.46-26.11,8.55-26.3,22.46-26.3,22.47,9.41,22.47,26.3"/>
  <path class="st0" d="M260.64,64.92v32.06c2.02.29,3.36.29,4.6.29,8.07,0,13.83-5.09,13.83-18.05,0-9.79-2.4-15.46-11.52-15.46-2.88,0-5.38.67-6.91,1.16M247.77,103.99V33.9l12.86-2.3v25.06c3.07-1.92,7.1-3.27,11.52-3.27,13.63,0,19.97,9.32,19.97,25.54,0,17.57-9.6,28.03-25.54,28.03-7.4,0-15.27-1.44-18.82-2.97"/>
  <path class="st0" d="M327.35,92.85v-9.89h-6.91c-6.91,0-10.56,2.79-10.56,7.87,0,3.65,2.11,6.05,6.33,6.05s8.83-2.02,11.14-4.03M319.28,74.71h8.07v-1.73c0-5.57-1.73-8.73-9.31-8.73-4.71,0-9.03.96-13.64,3.36l-3.55-8.83c4.9-3.36,12.1-5.38,18.72-5.38,12.96,0,19.78,6.34,19.78,19.49v32.65h-9.03l-1.44-4.32c-5.18,4.03-10.75,5.66-15.27,5.66-9.89,0-15.36-5.86-15.36-15.94,0-10.66,7.29-16.22,21.02-16.22"/>
  <path class="st0" d="M350.85,54.93h9.12l1.92,5.08c4.51-4.03,10.75-6.62,16.13-6.62,11.33,0,16.99,7.01,16.99,19.68v32.45h-12.86v-32.84c0-5.66-2.11-8.06-8.93-8.06-2.69,0-6.53.77-9.5,1.92v38.98h-12.86v-50.59Z"/>
  <path class="st0" d="M432.87,78.64l17.47,20.93-9.7,7.68-21.21-26.02v24.29h-12.86V33.9l12.86-2.3v46.56l19.39-26.31,9.6,6.72-15.55,20.06Z"/>
</svg>