<?xml version="1.0" encoding="UTF-8"?>
<svg xmlns="http://www.w3.org/2000/svg" viewBox="0 0 263.63 42.52">
  <g id="symbol2">
    <g>
      <polygon points="16.35 21.26 16.35 21.26 33.61 0 12.74 0 5.93 8.43 0 15.77 0 26.69 5.94 34.05 16.35 21.26" style="fill: #004e2b;"/>
      <polygon points="7.93 36.51 12.78 42.52 33.61 42.52 16.8 21.82 7.93 36.51" style="fill: #004e2b;"/>
    </g>
  </g>
  <g id="_레이어_1" data-name="레이어 1">
    <path d="M81.27,34.67c-6.51,0-11.41-4.66-11.41-10.99v-15.2h5.72v15.2c0,3.17,2.34,5.38,5.69,5.38s5.69-2.21,5.69-5.38v-15.2h5.72v15.2c0,6.33-4.91,10.99-11.41,10.99Z" style="fill: #231815;"/>
    <path d="M44.56,8.48h5.71v12.03l.07.03,9.31-12.07h6.72l-10.06,12.6,10.67,12.92h-7.01l-9.63-12.07-.07.04v12.03h-5.71V8.48Z" style="fill: #231815;"/>
    <path d="M98.35,8.48h9.7c3.88,0,7.3,1.23,9.74,3.59,2.44,2.36,3.77,5.57,3.77,9.16s-1.33,6.8-3.77,9.16c-2.44,2.36-5.82,3.59-9.7,3.59h-9.74V8.48ZM113.38,27.13c1.54-1.34,2.48-3.49,2.48-5.88s-.93-4.55-2.48-5.88c-1.55-1.34-3.56-1.97-5.82-1.97h-3.49v15.72h3.49c2.26,0,4.28-.63,5.82-1.97Z" style="fill: #231815;"/>
    <path d="M124.4,21.44c0-7.55,5.86-13.34,13.58-13.34s13.58,5.79,13.58,13.34-5.86,13.34-13.58,13.34-13.58-5.79-13.58-13.34ZM145.86,21.44c0-4.61-3.38-8.26-7.87-8.26s-7.87,3.65-7.87,8.26,3.38,8.26,7.87,8.26,7.87-3.65,7.87-8.26Z" style="fill: #231815;"/>
    <path d="M164.27,29.84c2.34,0,3.77-.89,3.77-2.68,0-1.25-.68-1.93-2.3-2.58-1.62-.64-4.85-1.29-7.01-2.54-2.16-1.25-3.31-3.11-3.31-6.01,0-4.97,3.63-7.94,9.09-7.94,2.55,0,5.64.64,7.91,1.82v5.51c-2.73-1.68-5.79-2.4-7.76-2.4-2.12,0-3.49.82-3.49,2.47,0,1.25.72,1.9,2.37,2.54,1.65.64,4.89,1.25,7.04,2.54s3.2,3.36,3.2,6.08c0,5.11-3.77,8.12-9.42,8.12-2.7,0-6.07-.72-8.55-2.04v-5.72c2.91,2,6.43,2.82,8.45,2.82Z" style="fill: #231815;"/>
    <g>
      <path d="M182.57,19.99h8.07v2.46h-5.2v2.58h4.48v2.37h-4.48v2.94h5.4v2.46h-8.27v-12.82Z" style="fill: #231815;"/>
      <path d="M192.88,19.99h2.87v10.36h5.72v2.46h-8.59v-12.82Z" style="fill: #231815;"/>
      <path d="M203.08,19.99h8.07v2.46h-5.2v2.58h4.48v2.37h-4.48v2.94h5.4v2.46h-8.27v-12.82Z" style="fill: #231815;"/>
      <path d="M219.69,33c-4.19,0-7.1-2.83-7.1-6.57s2.92-6.64,7.11-6.64c1.39,0,2.71.32,3.74.89v2.78c-.99-.69-2.31-1.15-3.63-1.15-2.56,0-4.33,1.75-4.33,4.07s1.73,4.11,4.44,4.11c1.34,0,2.62-.46,3.63-1.17v2.76c-1.08.62-2.53.92-3.86.92Z" style="fill: #231815;"/>
      <path d="M228.87,22.45h-4.22v-2.46h11.32v2.46h-4.22v10.36h-2.87v-10.36Z" style="fill: #231815;"/>
      <path d="M237.61,19.99h2.87v10.36h5.72v2.46h-8.59v-12.82Z" style="fill: #231815;"/>
      <path d="M247.81,19.99h2.87v12.82h-2.87v-12.82Z" style="fill: #231815;"/>
      <path d="M259.76,33c-4.19,0-7.1-2.83-7.1-6.57s2.93-6.64,7.11-6.64c1.39,0,2.71.32,3.74.89v2.78c-.99-.69-2.31-1.15-3.63-1.15-2.56,0-4.33,1.75-4.33,4.07s1.73,4.11,4.44,4.11c1.34,0,2.62-.46,3.63-1.17v2.76c-1.08.62-2.53.92-3.86.92Z" style="fill: #231815;"/>
    </g>
  </g>
</svg>